<svg xmlns="http://www.w3.org/2000/svg" xmlns:xlink="http://www.w3.org/1999/xlink" viewBox="0,0,256,256" width="96px" height="96px" fill-rule="nonzero"><defs><linearGradient x1="16" y1="-0.052" x2="16" y2="12.005" gradientUnits="userSpaceOnUse" id="color-1"><stop offset="0" stop-color="#d2d2d2"></stop><stop offset="1" stop-color="#c5c5c5"></stop></linearGradient><linearGradient x1="16" y1="0" x2="16" y2="12" gradientUnits="userSpaceOnUse" id="color-2"><stop offset="0" stop-color="#000000" stop-opacity="0.01961"></stop><stop offset="1" stop-color="#000000" stop-opacity="0.14902"></stop></linearGradient><linearGradient x1="16" y1="10.931" x2="16" y2="27.007" gradientUnits="userSpaceOnUse" id="color-3"><stop offset="0" stop-color="#d7149f"></stop><stop offset="0.898" stop-color="#ff00ea"></stop><stop offset="1" stop-color="#ff00cc"></stop></linearGradient><linearGradient x1="16" y1="11" x2="16" y2="27" gradientUnits="userSpaceOnUse" id="color-4"><stop offset="0" stop-color="#000000" stop-opacity="0.01961"></stop><stop offset="1" stop-color="#000000" stop-opacity="0.14902"></stop></linearGradient><linearGradient x1="16" y1="15.75" x2="16" y2="23.25" gradientUnits="userSpaceOnUse" id="color-5"><stop offset="0" stop-color="#ffffff" stop-opacity="0.10196"></stop><stop offset="1" stop-color="#ffffff" stop-opacity="0.30196"></stop></linearGradient></defs><g fill="none" fill-rule="nonzero" stroke="none" stroke-width="1" stroke-linecap="butt" stroke-linejoin="miter" stroke-miterlimit="10" stroke-dasharray="" stroke-dashoffset="0" font-family="none" font-weight="none" font-size="none" text-anchor="none" style="mix-blend-mode: normal"><g transform="scale(8,8)"><path d="M8,8v4h3v-4c0,-2.761 2.239,-5 5,-5v0c2.761,0 5,2.239 5,5v4h3v-4c0,-4.418 -3.582,-8 -8,-8v0c-4.418,0 -8,3.582 -8,8z" fill="url(#color-1)"></path><path d="M16,0.25c4.273,0 7.75,3.477 7.75,7.75v3.75h-2.5v-3.75c0,-2.895 -2.355,-5.25 -5.25,-5.25c-2.895,0 -5.25,2.355 -5.25,5.25v3.75h-2.5v-3.75c0,-4.273 3.477,-7.75 7.75,-7.75M16,0v0c-4.418,0 -8,3.582 -8,8v4h3v-4c0,-2.761 2.239,-5 5,-5c2.761,0 5,2.239 5,5v4h3v-4c0,-4.418 -3.582,-8 -8,-8z" fill="url(#color-2)"></path><path d="M27,27h-22c-0.552,0 -1,-0.448 -1,-1v-14c0,-0.552 0.448,-1 1,-1h22c0.552,0 1,0.448 1,1v14c0,0.552 -0.448,1 -1,1z" fill="url(#color-3)"></path><path d="M27,11.25c0.414,0 0.75,0.336 0.75,0.75v14c0,0.414 -0.336,0.75 -0.75,0.75h-22c-0.414,0 -0.75,-0.336 -0.75,-0.75v-14c0,-0.414 0.336,-0.75 0.75,-0.75h22M27,11h-22c-0.552,0 -1,0.448 -1,1v14c0,0.552 0.448,1 1,1h22c0.552,0 1,-0.448 1,-1v-14c0,-0.552 -0.448,-1 -1,-1z" fill="url(#color-4)"></path><path d="M16,15.75c-1.241,0 -2.25,1.009 -2.25,2.25c0,0.744 0.38,1.444 1,1.861v2.139c0,0.689 0.561,1.25 1.25,1.25c0.689,0 1.25,-0.561 1.25,-1.25v-2.139c0.62,-0.417 1,-1.117 1,-1.861c0,-1.241 -1.009,-2.25 -2.25,-2.25z" fill="url(#color-5)"></path><path d="M18,18c0,-1.105 -0.895,-2 -2,-2c-1.105,0 -2,0.895 -2,2c0,0.738 0.405,1.376 1,1.723c0,0.529 0,2.165 0,2.277c0,0.552 0.448,1 1,1c0.552,0 1,-0.448 1,-1c0,-0.112 0,-1.749 0,-2.277c0.595,-0.347 1,-0.985 1,-1.723z" fill="#404040"></path></g></g></svg>